STARTFONT 2.1
FONT -FontForge-bigpix-Medium-R-Normal--14-100-100-100-P-56-ISO10646-1
SIZE 10 100 100
FONTBOUNDINGBOX 8 15 0 -4
COMMENT "Generated by fontforge, http://fontforge.sourceforge.net"
COMMENT "DiegoCelayeta"
STARTPROPERTIES 39
FOUNDRY "FontForge"
FAMILY_NAME "bigpix"
WEIGHT_NAME "Medium"
SLANT "R"
SETWIDTH_NAME "Normal"
ADD_STYLE_NAME ""
PIXEL_SIZE 14
POINT_SIZE 100
RESOLUTION_X 100
RESOLUTION_Y 100
SPACING "P"
AVERAGE_WIDTH 56
CHARSET_REGISTRY "ISO10646"
CHARSET_ENCODING "1"
FONTNAME_REGISTRY ""
CHARSET_COLLECTIONS "ISO10646-1"
FONT_NAME "bigpix"
FACE_NAME "bigpix"
COPYRIGHT "DiegoCelayeta"
FONT_VERSION "001.000"
FONT_ASCENT 10
FONT_DESCENT 4
UNDERLINE_POSITION -2
UNDERLINE_THICKNESS 1
X_HEIGHT 5
CAP_HEIGHT 9
RAW_ASCENT 750
RAW_DESCENT 250
NORM_SPACE 4
RELATIVE_WEIGHT 50
RELATIVE_SETWIDTH 50
SUPERSCRIPT_X 0
SUPERSCRIPT_Y 6
SUPERSCRIPT_SIZE 9
SUBSCRIPT_X 0
SUBSCRIPT_Y 1
SUBSCRIPT_SIZE 9
AVG_LOWERCASE_WIDTH 47
AVG_UPPERCASE_WIDTH 70
ENDPROPERTIES
CHARS 87
STARTCHAR space
ENCODING 32
SWIDTH 312 0
DWIDTH 4 0
BBX 1 1 0 0
BITMAP
00
ENDCHAR
STARTCHAR exclam
ENCODING 33
SWIDTH 187 0
DWIDTH 3 0
BBX 1 10 1 0
BITMAP
80
80
80
80
80
80
80
80
00
80
ENDCHAR
STARTCHAR quotedbl
ENCODING 34
SWIDTH 250 0
DWIDTH 4 0
BBX 3 4 0 6
BITMAP
A0
A0
A0
A0
ENDCHAR
STARTCHAR numbersign
ENCODING 35
SWIDTH 500 0
DWIDTH 7 0
BBX 6 10 0 0
BITMAP
30
30
30
FC
30
30
FC
30
30
30
ENDCHAR
STARTCHAR dollar
ENCODING 36
SWIDTH 500 0
DWIDTH 7 0
BBX 6 10 0 0
BITMAP
10
10
78
94
90
78
94
78
10
10
ENDCHAR
STARTCHAR percent
ENCODING 37
SWIDTH 625 0
DWIDTH 9 0
BBX 8 8 0 0
BITMAP
61
92
94
68
16
29
49
86
ENDCHAR
STARTCHAR quotesingle
ENCODING 39
SWIDTH 125 0
DWIDTH 2 0
BBX 1 4 0 6
BITMAP
80
80
80
80
ENDCHAR
STARTCHAR parenleft
ENCODING 40
SWIDTH 312 0
DWIDTH 4 0
BBX 4 13 0 -2
BITMAP
10
20
40
40
80
80
80
80
80
40
40
20
10
ENDCHAR
STARTCHAR parenright
ENCODING 41
SWIDTH 312 0
DWIDTH 4 0
BBX 4 13 0 -2
BITMAP
80
40
20
20
10
10
10
10
10
20
20
40
80
ENDCHAR
STARTCHAR asterisk
ENCODING 42
SWIDTH 375 0
DWIDTH 5 0
BBX 4 4 0 6
BITMAP
B0
70
70
B0
ENDCHAR
STARTCHAR plus
ENCODING 43
SWIDTH 500 0
DWIDTH 7 0
BBX 6 6 0 2
BITMAP
10
10
10
FC
10
10
ENDCHAR
STARTCHAR comma
ENCODING 44
SWIDTH 187 0
DWIDTH 3 0
BBX 2 4 0 -2
BITMAP
C0
C0
40
80
ENDCHAR
STARTCHAR hyphen
ENCODING 45
SWIDTH 312 0
DWIDTH 4 0
BBX 4 1 0 4
BITMAP
F0
ENDCHAR
STARTCHAR period
ENCODING 46
SWIDTH 187 0
DWIDTH 3 0
BBX 2 2 0 0
BITMAP
C0
C0
ENDCHAR
STARTCHAR slash
ENCODING 47
SWIDTH 375 0
DWIDTH 5 0
BBX 4 10 0 0
BITMAP
10
10
10
10
20
20
60
40
80
80
ENDCHAR
STARTCHAR zero
ENCODING 48
SWIDTH 500 0
DWIDTH 7 0
BBX 6 10 0 0
BITMAP
30
48
84
8C
94
94
E4
84
48
30
ENDCHAR
STARTCHAR one
ENCODING 49
SWIDTH 250 0
DWIDTH 4 0
BBX 3 10 0 0
BITMAP
40
C0
40
40
40
40
40
40
40
E0
ENDCHAR
STARTCHAR two
ENCODING 50
SWIDTH 500 0
DWIDTH 7 0
BBX 6 10 0 0
BITMAP
30
48
84
04
08
10
30
40
80
FC
ENDCHAR
STARTCHAR three
ENCODING 51
SWIDTH 500 0
DWIDTH 7 0
BBX 6 10 0 0
BITMAP
30
48
84
04
08
10
0C
84
48
30
ENDCHAR
STARTCHAR four
ENCODING 52
SWIDTH 437 0
DWIDTH 6 0
BBX 5 10 0 0
BITMAP
88
88
88
88
F8
08
08
08
08
08
ENDCHAR
STARTCHAR five
ENCODING 53
SWIDTH 500 0
DWIDTH 7 0
BBX 6 10 0 0
BITMAP
7C
80
80
80
F0
08
04
04
88
70
ENDCHAR
STARTCHAR six
ENCODING 54
SWIDTH 500 0
DWIDTH 7 0
BBX 6 10 0 0
BITMAP
30
48
84
80
80
B0
CC
84
48
30
ENDCHAR
STARTCHAR seven
ENCODING 55
SWIDTH 500 0
DWIDTH 7 0
BBX 6 10 0 0
BITMAP
FC
04
08
08
10
10
10
20
20
40
ENDCHAR
STARTCHAR eight
ENCODING 56
SWIDTH 500 0
DWIDTH 7 0
BBX 6 10 0 0
BITMAP
30
48
84
84
48
30
CC
84
48
30
ENDCHAR
STARTCHAR nine
ENCODING 57
SWIDTH 500 0
DWIDTH 7 0
BBX 6 10 0 0
BITMAP
78
84
84
84
84
7C
04
04
04
04
ENDCHAR
STARTCHAR colon
ENCODING 58
SWIDTH 187 0
DWIDTH 3 0
BBX 2 6 0 0
BITMAP
C0
C0
00
00
C0
C0
ENDCHAR
STARTCHAR semicolon
ENCODING 59
SWIDTH 187 0
DWIDTH 3 0
BBX 2 8 0 -2
BITMAP
C0
C0
00
00
C0
C0
40
80
ENDCHAR
STARTCHAR equal
ENCODING 61
SWIDTH 312 0
DWIDTH 4 0
BBX 4 3 0 3
BITMAP
F0
00
F0
ENDCHAR
STARTCHAR question
ENCODING 63
SWIDTH 500 0
DWIDTH 7 0
BBX 6 10 0 0
BITMAP
30
48
84
84
08
10
10
10
00
10
ENDCHAR
STARTCHAR at
ENCODING 64
SWIDTH 500 0
DWIDTH 7 0
BBX 6 9 0 0
BITMAP
30
48
84
B4
B4
B4
88
40
3C
ENDCHAR
STARTCHAR A
ENCODING 65
SWIDTH 500 0
DWIDTH 7 0
BBX 6 10 0 0
BITMAP
30
48
84
84
84
FC
84
84
84
84
ENDCHAR
STARTCHAR B
ENCODING 66
SWIDTH 500 0
DWIDTH 7 0
BBX 6 10 0 0
BITMAP
F0
88
88
88
F0
88
84
84
88
F0
ENDCHAR
STARTCHAR C
ENCODING 67
SWIDTH 500 0
DWIDTH 7 0
BBX 6 10 0 0
BITMAP
38
44
80
80
80
80
80
80
44
38
ENDCHAR
STARTCHAR D
ENCODING 68
SWIDTH 500 0
DWIDTH 7 0
BBX 6 10 0 0
BITMAP
F0
90
88
84
84
84
84
84
88
F0
ENDCHAR
STARTCHAR E
ENCODING 69
SWIDTH 500 0
DWIDTH 7 0
BBX 6 10 0 0
BITMAP
FC
80
80
80
80
F0
80
80
80
FC
ENDCHAR
STARTCHAR F
ENCODING 70
SWIDTH 500 0
DWIDTH 7 0
BBX 6 10 0 0
BITMAP
FC
80
80
80
80
F0
80
80
80
80
ENDCHAR
STARTCHAR G
ENCODING 71
SWIDTH 500 0
DWIDTH 7 0
BBX 6 10 0 0
BITMAP
30
48
84
80
80
80
9C
84
48
30
ENDCHAR
STARTCHAR H
ENCODING 72
SWIDTH 500 0
DWIDTH 7 0
BBX 6 10 0 0
BITMAP
84
84
84
84
84
FC
84
84
84
84
ENDCHAR
STARTCHAR I
ENCODING 73
SWIDTH 375 0
DWIDTH 5 0
BBX 4 10 0 0
BITMAP
F0
20
20
20
20
20
20
20
20
F0
ENDCHAR
STARTCHAR J
ENCODING 74
SWIDTH 500 0
DWIDTH 7 0
BBX 6 10 0 0
BITMAP
7C
08
08
08
08
08
08
88
50
30
ENDCHAR
STARTCHAR K
ENCODING 75
SWIDTH 500 0
DWIDTH 7 0
BBX 6 10 0 0
BITMAP
84
88
90
90
A0
C0
B0
90
88
84
ENDCHAR
STARTCHAR L
ENCODING 76
SWIDTH 500 0
DWIDTH 7 0
BBX 6 10 0 0
BITMAP
80
80
80
80
80
80
80
80
80
FC
ENDCHAR
STARTCHAR M
ENCODING 77
SWIDTH 500 0
DWIDTH 7 0
BBX 6 10 0 0
BITMAP
84
CC
B4
94
84
84
84
84
84
84
ENDCHAR
STARTCHAR N
ENCODING 78
SWIDTH 562 0
DWIDTH 8 0
BBX 6 10 1 0
BITMAP
84
C4
A4
A4
A4
A4
94
8C
84
84
ENDCHAR
STARTCHAR O
ENCODING 79
SWIDTH 500 0
DWIDTH 7 0
BBX 6 10 0 0
BITMAP
30
48
84
84
84
84
84
84
48
30
ENDCHAR
STARTCHAR P
ENCODING 80
SWIDTH 500 0
DWIDTH 7 0
BBX 6 10 0 0
BITMAP
F0
88
84
84
88
F0
80
80
80
80
ENDCHAR
STARTCHAR Q
ENCODING 81
SWIDTH 500 0
DWIDTH 7 0
BBX 6 10 0 0
BITMAP
30
48
84
84
84
84
94
94
48
34
ENDCHAR
STARTCHAR R
ENCODING 82
SWIDTH 562 0
DWIDTH 8 0
BBX 6 10 1 0
BITMAP
F0
88
84
84
88
F0
A0
90
88
84
ENDCHAR
STARTCHAR S
ENCODING 83
SWIDTH 500 0
DWIDTH 7 0
BBX 6 10 0 0
BITMAP
30
48
84
80
40
30
0C
84
48
30
ENDCHAR
STARTCHAR T
ENCODING 84
SWIDTH 500 0
DWIDTH 7 0
BBX 6 10 0 0
BITMAP
FC
10
10
10
10
10
10
10
10
10
ENDCHAR
STARTCHAR U
ENCODING 85
SWIDTH 500 0
DWIDTH 7 0
BBX 6 10 0 0
BITMAP
84
84
84
84
84
84
84
84
48
30
ENDCHAR
STARTCHAR V
ENCODING 86
SWIDTH 500 0
DWIDTH 7 0
BBX 6 10 0 0
BITMAP
84
84
84
84
48
48
78
30
30
10
ENDCHAR
STARTCHAR W
ENCODING 87
SWIDTH 500 0
DWIDTH 7 0
BBX 6 10 0 0
BITMAP
84
94
94
94
94
94
94
94
94
78
ENDCHAR
STARTCHAR X
ENCODING 88
SWIDTH 500 0
DWIDTH 7 0
BBX 6 10 0 0
BITMAP
84
84
48
48
30
10
78
48
84
84
ENDCHAR
STARTCHAR Y
ENCODING 89
SWIDTH 500 0
DWIDTH 7 0
BBX 6 10 0 0
BITMAP
84
84
48
48
30
10
10
10
10
10
ENDCHAR
STARTCHAR Z
ENCODING 90
SWIDTH 500 0
DWIDTH 7 0
BBX 6 10 0 0
BITMAP
FC
04
04
08
10
10
60
80
80
FC
ENDCHAR
STARTCHAR bracketleft
ENCODING 91
SWIDTH 250 0
DWIDTH 4 0
BBX 3 13 0 -2
BITMAP
E0
80
80
80
80
80
80
80
80
80
80
80
E0
ENDCHAR
STARTCHAR backslash
ENCODING 92
SWIDTH 375 0
DWIDTH 5 0
BBX 4 10 0 0
BITMAP
80
80
40
40
20
20
30
10
10
10
ENDCHAR
STARTCHAR bracketright
ENCODING 93
SWIDTH 250 0
DWIDTH 4 0
BBX 3 14 0 -3
BITMAP
E0
20
20
20
20
20
20
20
20
20
20
20
20
E0
ENDCHAR
STARTCHAR underscore
ENCODING 95
SWIDTH 437 0
DWIDTH 6 0
BBX 5 1 0 -2
BITMAP
F8
ENDCHAR
STARTCHAR a
ENCODING 97
SWIDTH 375 0
DWIDTH 5 0
BBX 4 6 0 0
BITMAP
70
90
70
90
90
70
ENDCHAR
STARTCHAR b
ENCODING 98
SWIDTH 375 0
DWIDTH 5 0
BBX 4 10 0 0
BITMAP
80
80
80
80
F0
90
90
90
90
F0
ENDCHAR
STARTCHAR c
ENCODING 99
SWIDTH 375 0
DWIDTH 5 0
BBX 4 6 0 0
BITMAP
70
90
80
80
90
70
ENDCHAR
STARTCHAR d
ENCODING 100
SWIDTH 375 0
DWIDTH 5 0
BBX 4 10 0 0
BITMAP
10
10
10
10
70
90
90
90
90
70
ENDCHAR
STARTCHAR e
ENCODING 101
SWIDTH 375 0
DWIDTH 5 0
BBX 4 6 0 0
BITMAP
70
90
F0
80
90
70
ENDCHAR
STARTCHAR f
ENCODING 102
SWIDTH 375 0
DWIDTH 5 0
BBX 4 10 0 0
BITMAP
30
50
40
40
40
F0
40
40
40
40
ENDCHAR
STARTCHAR g
ENCODING 103
SWIDTH 375 0
DWIDTH 5 0
BBX 4 10 0 -4
BITMAP
70
90
90
90
90
70
10
10
90
70
ENDCHAR
STARTCHAR h
ENCODING 104
SWIDTH 375 0
DWIDTH 5 0
BBX 4 10 0 0
BITMAP
80
80
80
80
B0
D0
90
90
90
90
ENDCHAR
STARTCHAR i
ENCODING 105
SWIDTH 125 0
DWIDTH 2 0
BBX 1 6 0 0
BITMAP
80
00
80
80
80
80
ENDCHAR
STARTCHAR j
ENCODING 106
SWIDTH 312 0
DWIDTH 4 0
BBX 4 10 0 -4
BITMAP
10
00
10
10
10
10
90
90
90
60
ENDCHAR
STARTCHAR k
ENCODING 107
SWIDTH 375 0
DWIDTH 5 0
BBX 4 10 0 0
BITMAP
80
80
80
80
80
90
E0
A0
90
90
ENDCHAR
STARTCHAR l
ENCODING 108
SWIDTH 125 0
DWIDTH 2 0
BBX 1 10 0 0
BITMAP
80
80
80
80
80
80
80
80
80
80
ENDCHAR
STARTCHAR m
ENCODING 109
SWIDTH 375 0
DWIDTH 5 0
BBX 4 6 0 0
BITMAP
50
B0
B0
B0
B0
B0
ENDCHAR
STARTCHAR n
ENCODING 110
SWIDTH 312 0
DWIDTH 4 0
BBX 4 6 0 0
BITMAP
60
90
90
90
90
90
ENDCHAR
STARTCHAR o
ENCODING 111
SWIDTH 375 0
DWIDTH 5 0
BBX 4 6 0 0
BITMAP
70
90
90
90
90
70
ENDCHAR
STARTCHAR p
ENCODING 112
SWIDTH 375 0
DWIDTH 5 0
BBX 4 10 0 -4
BITMAP
F0
90
90
90
90
F0
80
80
80
80
ENDCHAR
STARTCHAR q
ENCODING 113
SWIDTH 437 0
DWIDTH 6 0
BBX 5 10 0 -4
BITMAP
70
90
90
90
90
70
10
10
10
18
ENDCHAR
STARTCHAR r
ENCODING 114
SWIDTH 375 0
DWIDTH 5 0
BBX 4 6 0 0
BITMAP
B0
D0
80
80
80
80
ENDCHAR
STARTCHAR s
ENCODING 115
SWIDTH 375 0
DWIDTH 5 0
BBX 4 6 0 0
BITMAP
70
90
F0
10
90
70
ENDCHAR
STARTCHAR t
ENCODING 116
SWIDTH 375 0
DWIDTH 5 0
BBX 4 10 0 0
BITMAP
20
20
20
F0
20
20
20
20
20
20
ENDCHAR
STARTCHAR u
ENCODING 117
SWIDTH 375 0
DWIDTH 5 0
BBX 4 6 0 0
BITMAP
90
90
90
90
90
70
ENDCHAR
STARTCHAR v
ENCODING 118
SWIDTH 375 0
DWIDTH 5 0
BBX 4 6 0 0
BITMAP
90
90
D0
50
50
20
ENDCHAR
STARTCHAR w
ENCODING 119
SWIDTH 375 0
DWIDTH 5 0
BBX 4 6 0 0
BITMAP
90
B0
B0
B0
B0
50
ENDCHAR
STARTCHAR x
ENCODING 120
SWIDTH 375 0
DWIDTH 5 0
BBX 4 6 0 0
BITMAP
90
90
70
50
90
90
ENDCHAR
STARTCHAR y
ENCODING 121
SWIDTH 375 0
DWIDTH 5 0
BBX 4 10 0 -4
BITMAP
90
90
90
50
50
20
20
20
20
20
ENDCHAR
STARTCHAR z
ENCODING 122
SWIDTH 375 0
DWIDTH 5 0
BBX 4 6 0 0
BITMAP
F0
10
30
40
80
F0
ENDCHAR
STARTCHAR degree
ENCODING 176
SWIDTH 312 0
DWIDTH 4 0
BBX 4 4 0 6
BITMAP
60
90
90
60
ENDCHAR
ENDFONT
